<svg xmlns="http://www.w3.org/2000/svg" viewBox="0 0 600 600"><defs><style>.b{fill:#fff}</style></defs><circle cx="300" cy="300" r="300" fill="#006c35"/><path class="b" d="M524 223l-6-51 5 1c0-5-2-11-4-16a15 15 0 00-4-6 6 6 0 00-6 5 51 51 0 001 10l7 75a61 61 0 010 20l-5-11c-5-9-13-16-21-23-2-1-2-3-2-5l-4-49 4 1c1-3-1-6 2-8 5-5 10-9 11-16l-15 11-5-9a6 6 0 00-6 5v10c0 3-4 4-5 6l-16 13-2-13 4 1a22 22 0 000-8 43 43 0 00-7-15l-5 3-1 6 1 18a82 82 0 00-8-8c-4-3-8-6-14-7v9c1 4 5 7 7 10l14 13-12 10-10 8-4-40 4 2a15 15 0 000-7 48 48 0 00-5-13l-3-3c-3 0-6 4-5 7l1 15 4 44-1 3a27 27 0 01-3 3l-15 13-25-21a13 13 0 01-2-2 25 25 0 01-1-5l-3-36 4 1a23 23 0 000-7 48 48 0 00-7-16l-5 3c-2 2-2 4-2 6 1 15 3 29 3 44a77 77 0 01-14-15h6a13 13 0 00-3-5 47 47 0 00-10-8 18 18 0 00-7-3c-2 2-1 5-1 7 2 5 6 10 9 14a252 252 0 0019 21c2 1 3 3 3 5l4 52a59 59 0 001 10 14 14 0 004-9c2-16 1-32 0-47l20 17c-5 5-9 10-11 17-1 4-2 8 0 12s0 9 2 13c1 5 4 10 9 13 4 2 8 3 12 1s4-6 6-9c2-6 3-13 8-17l8-4 5 12c2 3 4 6 8 7a40 40 0 0010 0c7 0 12-5 15-11 2-6 2-13 1-20l-1-27-2-21 20 18c1 1 3 3 3 5l3 34c0 5 0 11 2 16a13 13 0 003-8c2-12 1-24 1-36 11 8 19 19 23 31-3 5-9 9-14 12a106 106 0 01-17 9l-12 5a24 24 0 0011 0c9-2 18-5 26-10 10-6 15-17 17-27 2-12 0-23 0-35zm-82-43h4v5l-4-5zm-57 78a85 85 0 018-10c3 2 6 5 7 9l-3 4a25 25 0 01-15 3 17 17 0 013-6zm68 17c-6 5-16 5-21-1l-6-12c-1-2-3-2-5-2-5 0-10 4-13 8a93 93 0 00-8 17c-1 3-3 6-6 7s-6-1-8-4c-3-4-3-8-4-13 7-1 14-2 20-6a16 16 0 005-16c-1-4-4-8-6-11l14-12 3 24c2-1 3-2 4-5 2-8 1-16 1-25l2-3 23-19 7 66c0 2 0 5-2 7zm6-75l-3-4c0-2 2-3 3-4 6-4 11-10 18-14l1 20 1 20-20-18zM167 151c1-1 3 1 4 2l7 11-4 1c0 6 6 11 7 17a24 24 0 011 12 14 14 0 01-11 11c-7 1-14-1-19-6-3-3-4-7-5-11-2 5-4 11-8 15a27 27 0 01-8 6c1 14 3 29 1 44 0 4 0 9-4 12l-3-18-3-37c-4-1-8-2-10-4-5-5-7-11-6-17l2-14a17 17 0 00-3 7c-3 7-4 15-8 22a10 10 0 01-7 5c-3 1-8 1-11-2s-3-8-4-12l1-13 6-5c-1 3-3 5-3 8-1 3 0 7 1 11l2 6a7 7 0 0010 0 16 16 0 003-6l7-21c3-6 7-11 14-12-1 7-5 15-5 23 0 3 0 7 3 10 1 2 4 3 7 4l-3-32v-12c1-3 4-4 6-5 5 6 8 14 8 22l-5-1 3 28a17 17 0 0010-7c4-7 5-15 3-23l-4-9c0-3 2-7 5-8l2 2 3 12c1 6 0 11 2 16a20 20 0 009 11 17 17 0 0011 2 5 5 0 004-4c1-3 0-7-2-10-3-7-8-14-9-22-1-3 0-7 3-9z"/><path class="b" d="M326 160a22 22 0 0110-9 43 43 0 01-5 8l-1 6a38 38 0 008-2c-1 3-1 5-3 6-3 2-6 3-8 1a9 9 0 01-1-10zM226 212c0-2-2-2-3-3l-2 13c-3 2-7 4-11 1-2-2-1-6-1-9-5 2-8 7-11 10l-2-16 20-10 4-4a20 20 0 00-6 1l-18 10-5-32 4 1a18 18 0 000-7 42 42 0 00-7-15l-6 3v7l6 52 2 16c-2 0-5 0-6-2-3-3-3-7-3-10-6 3-11 9-17 11-2-4-5-8-9-10s-10-2-14 1c-3 3-5 7-6 11 0 3 0 7 2 9s6 4 9 4c6 0 10-2 15-3 0 2 1 4-1 6-2 4-6 6-9 9l-31 16a148 148 0 01-14 5 52 52 0 010-28l5-12a38 38 0 00-6 8 55 55 0 00-7 36l-21 6 17 1h8l5 4a29 29 0 0014 4c10 0 19-2 28-5 15-4 30-12 40-25a47 47 0 0010-26c0-4 2-8 4-12l6 6c2 1 6 1 8-1 4-2 8-5 9-9v-12zm-81 21c-1-1-3-2-2-3 1-2 3-2 5-2 3 0 6 2 7 4-3 1-7 2-10 1zm46 15a31 31 0 01-9 14c-7 7-15 12-24 15-8 3-16 6-25 7l-18 1a116 116 0 0014-7c9-5 19-10 28-17 4-3 8-8 10-13l1-11a57 57 0 008-6l5 7 11 1a42 42 0 01-1 9zM262 155c2-2 4-2 5-1a12 12 0 015 11 19 19 0 01-1 5c-1-3 0-5-2-8-1-2-5-3-7-5v-2z"/><path class="b" d="M310 156c0-2 1-3 3-2 5 2 8 6 10 10h-5a64 64 0 003 9l5 13c1 5 0 11-4 15-7 7-20 6-26-2l-4-10c-2 7-6 15-13 18a21 21 0 01-22-1 14 14 0 01-6-11c-1-7 2-13 3-20a14 14 0 00-4 6c-3 7-4 15-8 22-2 3-5 6-9 7s-8-1-10-5c-2-3-2-7-2-10a36 36 0 014-16c0 7-2 14 1 21 2 3 6 6 10 4 3-2 5-6 6-10l8-21 6-8 5-1c0 6-3 11-4 17-2 6-2 12 2 16 4 5 11 6 17 4 8-2 13-10 14-19 0-5 0-10-2-15-2-2-4-4-3-7a10 10 0 015-7 21 21 0 014 9c1 8 1 16 4 23 1 4 4 9 8 11 4 1 9 2 13 0 2-1 3-4 2-7-2-8-7-14-10-22-1-3-2-7-1-11zM388 154c2-1 5 0 7 2a3 3 0 01-2 4 22 22 0 01-4-2l-5 12a27 27 0 00-2-6l-6-5c-1-2 1-4 3-4l5 6c1-3 1-5 4-7zM76 163c2-4 6-7 10-9l-4 8-1 6a34 34 0 008-2c-1 2-2 5-4 6s-5 2-7 1c-3-2-3-6-2-10z"/><path class="b" d="M235 163l-3-6c-2-3-7-3-8 1 0 3 3 4 4 6a29 29 0 01-4 7l-11 8c8-1 15-7 19-13 2 5-3 9-3 14 0 3 3 5 5 4s2-4 2-6l-4 2 4-10c1-3 0-5-1-7zm-8-6a4 4 0 013 3 9 9 0 01-3-3zM198 160c2 0 4-1 6 1a16 16 0 014 15l-2-6-8-10zM161 162a8 8 0 012 7l-8 2a3 3 0 01-3-2 17 17 0 010-5l2 5 2-1v-4h2l1 4 2-1v-5zM396 166a25 25 0 017-1 11 11 0 01-4 3l-24 10 3 4c-2 0-4 0-6-2a3 3 0 010-4 18 18 0 014-3l20-7zM275 172a21 21 0 013-2l2 8c1 2 1 7-2 7-3 1-6-1-7-2l-6 3c-4-1-6-5-5-9 0-2 2-4 4-5l-1 7 4 3 1-9 3-2 1 7 4 3c1-3-1-6-1-9zM155 176l5 1a16 16 0 015 15c-2-3-3-7-6-10-2-2-4-3-4-6zM395 190a15 15 0 013-3 18 18 0 002 8c1 3 1 6-2 8-3 1-5-1-8-2-1 1-3 3-6 2s-5-5-4-8c0-3 2-4 4-6-1 3-2 5-1 8 0 2 2 1 4 2l1-9a12 12 0 013-1l1 7c1 2 3 2 4 2l-1-8zM491 194a3 3 0 013-4c3 0 5 3 6 5 3 5 4 11 2 16-1-5-1-11-5-14l-6-3zM331 204a5 5 0 015-2c3 3 2 6 0 9-3 4-9 6-14 6l10-5c2-1 1-3 2-5l-5 1a22 22 0 012-4zM409 207h3c-1 3-3 4-6 5l-24 13-1-3 14-8 14-7zM356 251l-64 1c8-6 16-11 26-13l2 6c3-1 3-4 4-7 4 0 8 0 11-3a11 11 0 003-6c-1-3-4-5-7-7-4-2-9-4-14-4-4 0-8 4-9 8-1 3 2 5 4 8a113 113 0 00-22 8c-4 3-9 6-12 10l-2 7 19 1h22c-9 3-18 6-26 11-3 2-4 5-4 8-3-1-6-3-8-6-3-3-4-8-5-12-2-9-2-19-5-27-3-9-8-17-15-24l-2 4a20 20 0 002 11c5 10 10 19 13 30-11 9-21 18-34 24a32 32 0 01-11 2l-5-2c9-7 18-13 26-21a15 15 0 004-13c-1-6-4-11-6-16l3-1c-3-5-6-10-11-14-1 2-3 3-3 5 0 6 2 12 4 17l5 11c1 2-2 4-3 6a112 112 0 01-21 16l5-15a22 22 0 00-8 9l-3 9-4 3c-13 7-25 13-38 18l-11 5a112 112 0 0021-2c12-3 23-8 33-13l5 8c4 2 9 2 13 0 12-5 22-11 31-20a66 66 0 009-10c1 7 2 14 7 19 5 8 14 13 23 15h10c3-2 3-5 2-8 0-2-3-3-5-3a93 93 0 01-15-4 18 18 0 016-6c7-3 15-5 22-6l31-7c5-1 10-4 11-9l-4-1zm-39-27c4 0 7 2 10 4-2 2-5 4-8 3a11 11 0 01-5-4c0-1 1-3 3-3zM104 216c-2-2-5-5-9-5a3 3 0 00-2 3c-1 3 0 6 1 8-3 4-7 7-12 9l-7 4c7 1 14-2 19-6 3-1 4-5 8-5 1-1 4-1 4-3 1-2 0-3-2-5zm-7 4a13 13 0 01-2-6 37 37 0 014 1l-2 5zm3 1c1-2 1-4 3-5a17 17 0 011 5h-4z"/><path class="b" d="M289 215a10 10 0 013-2c0 3 3 6 3 10s-4 6-7 4l-3-2c-2 2-3 4-6 3s-5-5-5-8l4-6-1 7 4 3a48 48 0 002-8c0-2 2-2 3-3v7l4 3c1-3-1-5-1-8zM104 229l7-3c2-1 3 4 1 5l-8 4-19 9-5 1a11 11 0 014-5l20-11zM348 232c1-2 3-2 5-3l3 9h-3c-2 2-3 5-6 6-3 2-8 2-12 2 5-2 10-2 13-6 2-2 0-5 0-8zM447 239c-2-2-4-5-7-5l-5 1c-1 4 1 7 2 10-4 3-7 7-12 8-3 1-5 2-7 5 8 0 17-4 23-10 1-2 5-1 7-3a4 4 0 00-1-6zm-8 3a25 25 0 01-1-5l3 1a24 24 0 01-2 4zm4 2a34 34 0 011-5h1a20 20 0 012 4l-4 1zM216 239c3-2 7-1 8 1s-1 3-1 4a16 16 0 00-4-2l-2 2-3 10a29 29 0 00-3-6l-5-5c-2-1 0-4 2-4l6 5 2-5zM77 258a22 22 0 0110-9 44 44 0 01-4 8c-2 2-2 4-2 6a50 50 0 008-1c0 2-1 4-3 5-2 2-5 3-8 1a9 9 0 01-1-10zM262 275h6a4 4 0 011 6c-3 1-6 0-8 2 0 3 3 5 3 8l-2 5-3-9c-1-1-2-3-1-5 0-3 2-4 4-5a14 14 0 010-2zM351 278l5-4-3 5 4 5c0 3-4 3-6 2v-8zM329 275c4-1 7 0 10 2-2 4-7 5-11 8a9 9 0 011 1h7a34 34 0 019-4l-7 6c-3 3-7 3-11 2-2-1-4-2-3-4 1-3 3-5 6-6l-5-1c1-1 2-4 4-4zM413 283a2 2 0 012-4c3 0 6 2 7 5a12 12 0 010 11c0-2 0-5-2-7-1-3-5-3-7-5zM466 285c4-2 8-4 13-4a9 9 0 01-4 4l-22 8a37 37 0 01-7 3l-1-2 21-10zM452 426h-36v-3l4-5c0-2-5-6-6-6s-5 4-5 6l3 5h1v3H131c10 10 25 10 55 10h226v4l-3 4c0 2 4 6 5 6l5-4h13l4 2a6 6 0 005-2h15a7 7 0 006 2c6 0 7-3 7-13 0-8-6-9-17-9zm2 17h-13a6 6 0 00-9 0h-12a14 14 0 00-4-3v-4h38a11 11 0 000 7z"/></svg>