<svg xmlns="http://www.w3.org/2000/svg" viewBox="0 0 400 400"><defs><style>.a{fill:#0d5eaf}</style></defs><path class="a" d="M326 44H222v45h-89V11a200 200 0 01193 33zM389 133H222V89h144a199 199 0 0123 44zM400 200a201 201 0 01-1 22H133v-89h89v45h177a201 201 0 011 22zM89 133v89H1a201 201 0 0110-89zM326 356a200 200 0 01-252 0zM389 267a199 199 0 01-23 44H34a199 199 0 01-23-44zM89 34v55H34a201 201 0 0155-55z"/><path d="M34 311a201 201 0 0040 45h252a201 201 0 0040-45zm355-178H222v45h177a199 199 0 00-10-45zm-256 89v-89h89V89h-89V11a199 199 0 00-44 23v55H34a199 199 0 00-23 44h78v89H1a199 199 0 0010 45h378a199 199 0 0010-45zM326 44H222v45h144a201 201 0 00-40-45z" fill="#fff"/></svg>