<svg xmlns="http://www.w3.org/2000/svg" viewBox="0 0 600 600"><defs><style>.a{fill:#012169}.b{fill:none}.c{fill:#fff}.d{fill:#c8102e}</style></defs><path class="a" d="M536 115l-136 68V17a301 301 0 01136 98zM400 417l136 68a301 301 0 01-136 98zM200 17v166L64 115a301 301 0 01136-98zM64 485l136-68v166a301 301 0 01-136-98z"/><path class="b" d="M32 434l68-34 80-40 120-60 120-60 80-40 68-34m0 268l-68-34-80-40-120-60-120-60-80-40-68-34"/><path class="c" d="M590 378l-2 5v2l-1 3-1 2v2l-1 2-1 3-1 3a298 298 0 01-15 34l-2 4v1a140 140 0 01-2 4l-1 1a161 161 0 01-2 3 2 2 0 010 1v1l-2 2v1a151 151 0 01-5 8h-1l-1 3-1 1v1l-3 4-1 2-8 10-1 2-2 2-136-68-100-50-100 50-136 68-2-2-1-2-8-10-1-2-3-4v-1l-1-1-1-3h-1a184 184 0 01-7-11v-2l-2-2v-1l-1-2-2-3v-1l-2-4a298 298 0 01-15-34l-1-3-1-3-1-2v-2l-1-2-1-3v-2l-2-5 156-78-156-78 2-5v-2l1-3 1-2v-2l1-2 1-3 1-3a298 298 0 0115-34l2-4v-2a140 140 0 013-4v-1l1-1 1-2 1-1 1-2v-1a151 151 0 015-8l1-1 1-2 1-1v-1l3-4 1-2 8-11 1-1 2-2 136 68 100 50 100-50 136-68 2 2 1 1 8 11 1 2 3 4v1l1 1 2 2v1a184 184 0 015 8v1l1 2 1 1 1 2 1 2 1 1c0 1 0 0 0 0v1l2 3v1l2 4a298 298 0 0115 34l1 3 1 3 1 2v2l1 2 1 3v2l2 5-156 78z"/><path class="d" d="M389 300l195 97-1 3a299 299 0 01-35 69L300 345 52 469a299 299 0 01-35-69l-1-3 195-97-195-97 1-3a299 299 0 0135-69l248 124 248-124a299 299 0 0135 69l1 3z"/><path class="c" d="M600 300a301 301 0 01-6 60l-4 18-2 5v2l-1 3-1 2v2l-1 2-1 3-1 3H400v183a297 297 0 01-40 11 303 303 0 01-120 0 297 297 0 01-40-11V400H17l-1-3-1-3-1-2v-2l-1-2-1-3v-2l-2-5-4-18a303 303 0 010-120l4-18 2-5v-2l1-3 1-2v-2l1-2 1-3 1-3h183V17a297 297 0 0140-11 303 303 0 01120 0 297 297 0 0140 11v183h183l1 3 1 3 1 2v2l1 2 1 3v2l2 5 4 18a301 301 0 016 60z"/><path class="b" d="M600 300H0m300 300V0"/><path class="d" d="M600 300a301 301 0 01-6 60H360v234a303 303 0 01-120 0V360H6a303 303 0 010-120h234V6a303 303 0 01120 0v234h234a301 301 0 016 60z"/></svg>